<svg xmlns="http://www.w3.org/2000/svg" version="1.1" width="76" height="76"><style>.s0{fill-rule:evenodd;fill:#fff;}</style><desc iVinci="yes" version="4.6" gridStep="20" showGrid="no" snapToGrid="no" codePlatform="0"/><g name="Layer 1" opacity="1"><desc shapeID="1" type="0" basicInfo-basicType="0" basicInfo-roundedRectRadius="12" basicInfo-polygonSides="6" basicInfo-starPoints="5" bounding="rect(-14.2935,-11.9282,28.587,23.8563)" text="" font-familyName="" font-pixelSize="20" font-bold="0" font-underline="0" font-alignment="1" strokeStyle="0" markerStart="0" markerEnd="0" shadowEnabled="0" shadowOffsetX="0" shadowOffsetY="2" shadowBlur="4" shadowOpacity="160" blurEnabled="0" blurRadius="4" transform="matrix(1,0,0,1,38.0161,50.509)" pers-center="0" pers-size="0" pers-start="0" pers-end="0" locked="0" mesh="" flag=""/><path d="M50.86 60.81C48.37 63.32 45.72 61.01 43.79 59.16 42.13 57.57 40.14 55.58 38.4 54.23 33.87 58.98 30.19 64.69 26.47 61.53 22.01 57.74 30.76 52.19 32.9 48.92 30.67 48.42 26.93 47.22 25.17 45.89 23.4 44.55 23.07 41.47 25.21 39.95 27.77 38.12 29.49 40.13 32.51 41.1 43.96 44.77 48.39 34.5 51.78 40.52 54.67 45.65 44.84 47.92 43.66 48.71 48.39 53.21 54.44 57.18 50.86 60.81Z" class="s0"/><desc shapeID="2" type="0" basicInfo-basicType="0" basicInfo-roundedRectRadius="12" basicInfo-polygonSides="6" basicInfo-starPoints="5" bounding="rect(-12.7541,-12.5579,25.5082,25.1157)" text="" font-familyName="" font-pixelSize="20" font-bold="0" font-underline="0" font-alignment="1" strokeStyle="0" markerStart="0" markerEnd="0" shadowEnabled="0" shadowOffsetX="0" shadowOffsetY="2" shadowBlur="4" shadowOpacity="160" blurEnabled="0" blurRadius="4" transform="matrix(1,0,0,1,38.0168,25.8778)" pers-center="0" pers-size="0" pers-start="0" pers-end="0" locked="0" mesh="" flag=""/><path d="M40.19 13.49C33.96 12.44 26.6 16.21 25.44 23.79 22.89 40.49 48.25 44.41 50.65 27.65 51.54 21.46 47.54 14.74 40.19 13.49M38.25 31.09C31.32 31.18 30.81 21.27 37.7 20.79 44.96 20.28 45.04 31.01 38.25 31.09Z" class="s0"/><desc shapeID="3" type="0" basicInfo-basicType="0" basicInfo-roundedRectRadius="12" basicInfo-polygonSides="6" basicInfo-starPoints="5" bounding="rect(-37.2232,-37.0244,74.4463,74.0487)" text="" font-familyName="" font-pixelSize="20" font-bold="0" font-underline="0" font-alignment="1" strokeStyle="0" markerStart="0" markerEnd="0" shadowEnabled="0" shadowOffsetX="0" shadowOffsetY="2" shadowBlur="4" shadowOpacity="160" blurEnabled="0" blurRadius="4" transform="matrix(1,0,0,1,38.0164,38.2439)" pers-center="0" pers-size="0" pers-start="0" pers-end="0" locked="0" mesh="" flag=""/><path d="M38.02 1.22C17.46 1.22 0.79 17.8 0.79 38.24 0.79 58.69 17.46 75.27 38.02 75.27 58.57 75.27 75.24 58.69 75.24 38.24 75.24 17.8 58.57 1.22 38.02 1.22Z" style="fill:none;stroke-linejoin:;stroke-miterlimit:2;stroke-width:2;stroke:#fff"/></g></svg>