<svg viewBox="0 -1 35 36" xmlns="http://www.w3.org/2000/svg"><path class="gl-sharing-tags-icon-fill sharing-tags-icon-fill" d="M17.63 34.085c9.394 0 17.008-7.615 17.008-17.008C34.638 7.684 27.024.07 17.63.07 8.237.07.622 7.684.622 17.077S8.237 34.085 17.63 34.085"/><path class="gl-sharing-tags-icon-in sharing-tags-icon-in" d="M25.825 15.835h-2.05v-2.05h-1.65v2.05h-2.05v1.65h2.05v2.05h1.65v-2.05h2.05v-1.65zM18.16 18.32c-.475-.338-1.385-1.158-1.385-1.64 0-.565.162-.842 1.01-1.506.872-.682 1.49-1.64 1.49-2.75 0-1.326-.59-2.617-1.7-3.044h1.67l1.18-.85h-5.268c-2.36 0-4.583 1.788-4.583 3.86 0 2.117 1.61 3.827 4.012 3.827.167 0 .33-.004.488-.015-.156.298-.268.635-.268.983 0 .59.317 1.066.717 1.456-.302 0-.595.01-.912.01-2.924 0-5.176 1.862-5.176 3.794 0 1.902 2.468 3.092 5.393 3.092 3.334 0 5.176-1.89 5.176-3.794 0-1.526-.45-2.44-1.842-3.423zm-2.812-2.64c-1.357-.04-2.647-1.52-2.88-3.3-.236-1.783.675-3.146 2.032-3.106 1.356.04 2.646 1.47 2.88 3.252.234 1.782-.675 3.194-2.032 3.153zm-.532 9.015c-2.022 0-3.482-1.28-3.482-2.817 0-1.507 1.812-2.76 3.833-2.74.472.006.912.082 1.31.21 1.098.765 1.885 1.195 2.107 2.065.042.177.065.358.065.543 0 1.538-.99 2.74-3.834 2.74z"/></svg>