<svg viewBox="0 0 34 34" xmlns="http://www.w3.org/2000/svg"><g fill="#00C300" fill-rule="evenodd"><path d="M9.972 12.727c-.57.01-.618.466-.618.466l.002 1.215.007 3.896s.093.278.198.36c.108.082.315.165.315.165l3.18.01s.467-.104.47-.575c.002-.47-.494-.58-.494-.58l-2.507-.01-.003-4.33s.022-.63-.548-.618zM13.695 13.242s.138-.53.6-.527c.46.004.592.51.584.525-.018.035-.005 5.11-.005 5.11s-.09.516-.59.512c-.497-.004-.585-.484-.585-.484l-.005-5.136zM16.45 18.89c-.46.025-.62-.46-.62-.46l-.008-4.928s.185-.606.707-.734.936.256.936.256l2.47 4.215-.013-4.01s.152-.527.616-.5c.463.03.536.458.536.458l-.006 4.89s-.066.494-.405.663c-.338.17-.466.136-.655.103-.2-.036-.513-.308-.513-.308l-2.494-4.25v4.112s-.096.467-.554.492zM23.093 13.864l-.02 1.386 2.5.003s.46.063.444.517c-.015.453-.39.54-.39.54l-2.512-.002-.015 1.405 2.628.005s.457.113.458.54c0 .43-.43.58-.43.58l-3.062.004s-.338-.03-.536-.23c-.2-.198-.252-.5-.252-.5l.006-4.63s.03-.264.253-.5c.223-.238.64-.243.64-.243l2.784-.006c.008 0 .572.01.577.54.006.53-.518.63-.523.62-.005-.01-2.55-.03-2.55-.03z"/><path d="M17 34c9.39 0 17-7.61 17-17S26.39 0 17 0 0 7.61 0 17s7.61 17 17 17zM4.785 16.46c-.077-3.18-.016-.743-.016-.743-.04-4.416 3.43-8.75 7.76-9.58 0 0 1.516-.55 4.512-.55 2.996 0 5.41.76 5.41.76 4.31.94 7.622 5.278 7.397 9.68 0 0-.007.183-.023.4-.007.085-.016.177-.03.267-.046.317-.446 1.348-.446 1.348-1.475 4.168-6.08 8.668-10.138 10.362 0 0 .826-.754-.033.028-.86.782-3.316 1.953-3.02-.29.31-2.366-.16-2.428-2.242-2.806-2.083-.378-.796-.142-.796-.142-4.35-.75-8.152-4.927-8.337-8.733 0 0 .077 3.18 0 0z"/></g></svg>