<?xml version="1.0" encoding="UTF-8" standalone="no"?>
<svg width="100%" height="100%" viewBox="0 0 34 34" version="1.1" xmlns="http://www.w3.org/2000/svg" xmlns:xlink="http://www.w3.org/1999/xlink">
    <g stroke="none" stroke-width="1" fill="none" fill-rule="evenodd">
        <g id="sharing-line" sketch:type="MSLayerGroup" fill="#00C300">
            <g transform="translate(9.000000, 12.000000)">
                <path d="M0.971744792,0.726627604 C0.401888021,0.737890625 0.354361979,1.19277344 0.354361979,1.19277344 L0.356404968,2.4078099 L0.362955729,6.30377604 C0.362955729,6.30377604 0.456342387,6.58223194 0.561393229,6.66360677 C0.668082839,6.74625103 0.875390625,6.82936198 0.875390625,6.82936198 L4.0546875,6.83938802 C4.0546875,6.83938802 4.52233887,6.7355835 4.52484131,6.26477051 C4.52734375,5.79395752 4.03085937,5.68496094 4.03085937,5.68496094 L1.52288818,5.67376709 L1.51959229,1.34576416 C1.51959229,1.34576416 1.54160156,0.715364583 0.971744792,0.726627604 Z" id="L"></path>
                <path d="M4.69470215,1.24151611 C4.69470215,1.24151611 4.83319092,0.711669922 5.29388428,0.715148926 C5.75457764,0.71862793 5.88714646,1.22371826 5.87897135,1.24003906 C5.86157932,1.27476057 5.87518311,6.35131836 5.87518311,6.35131836 C5.87518311,6.35131836 5.78442383,6.86627197 5.28637695,6.86218262 C4.78833008,6.85809326 4.70031738,6.37780762 4.70031738,6.37780762 C4.70031738,6.37780762 4.69470215,1.24151611 4.69470215,1.24151611 Z" id="I"></path>
                <path d="M7.44927979,6.88946533 C6.99127197,6.91497803 6.83105469,6.42926025 6.83105469,6.42926025 L6.82220459,1.50201416 C6.82220459,1.50201416 7.00665283,0.895996094 7.52923584,0.768066406 C8.05181885,0.640136719 8.46630859,1.02386475 8.46630859,1.02386475 L10.9348145,5.23901367 L10.9231567,1.23077393 C10.9231567,1.23077393 11.0747681,0.702941895 11.5390015,0.730957031 C12.0032349,0.758972168 12.0757446,1.18756104 12.0757446,1.18756104 L12.0704346,6.07739258 C12.0704346,6.07739258 12.0039673,6.57208252 11.6652832,6.74090576 C11.3265991,6.909729 11.1990569,6.87597953 11.0098877,6.84259033 C10.8095712,6.8072336 10.4968262,6.53466797 10.4968262,6.53466797 L8.00262451,2.28527832 L8.00219727,6.39733887 C8.00219727,6.39733887 7.9072876,6.86395264 7.44927979,6.88946533 Z" id="N"></path>
                <path d="M14.0929565,1.86358643 L14.0742188,3.25 L16.572998,3.25280762 C16.572998,3.25280762 17.0330811,3.31646729 17.0174561,3.76977539 C17.0018311,4.2230835 16.6262817,4.30895996 16.6262817,4.30895996 L14.1148071,4.3079834 L14.0998535,5.71264648 L16.7276001,5.71807861 C16.7276001,5.71807861 17.1853027,5.83135986 17.1859741,6.25946045 C17.1866455,6.68756104 16.7555542,6.83752441 16.7555542,6.83752441 L13.6943359,6.84155273 C13.6943359,6.84155273 13.355835,6.81158447 13.1576538,6.61273193 C12.9594727,6.41387939 12.9058838,6.11120605 12.9058838,6.11120605 L12.9121094,1.48266602 C12.9121094,1.48266602 12.9414062,1.21789551 13.1646118,0.981018066 C13.3878174,0.744140625 13.8051147,0.738708496 13.8051147,0.738708496 C13.8051147,0.738708496 16.5845284,0.734094823 16.5891113,0.734130859 C16.5977452,0.734198749 17.1618652,0.742980957 17.1672363,1.27362061 C17.1726074,1.80426025 16.6489868,1.9052124 16.6442261,1.89501953 C16.6394653,1.88482666 14.0929565,1.86358643 14.0929565,1.86358643 Z" id="E"></path>
            </g>
            <path d="M17,34 C26.3888407,34 34,26.3888407 34,17 C34,7.61115925 26.3888407,0 17,0 C7.61115925,0 0,7.61115925 0,17 C0,26.3888407 7.61115925,34 17,34 Z M4.78515625,16.4609375 C4.70825195,13.2805176 4.76909988,15.716733 4.76909988,15.716733 C4.72942692,11.3010072 8.20003643,6.96556743 12.5311551,6.13604162 C12.5311551,6.13604162 14.0456543,5.58618164 17.041748,5.58618164 C20.0378418,5.58618164 22.4520881,6.34805988 22.4520881,6.34805988 C26.7618571,7.28655924 30.0744315,11.6246145 29.8488105,16.0270278 C29.8488105,16.0270278 29.8434131,16.2101945 29.8268107,16.426616 C29.8202569,16.5120474 29.8109801,16.6038351 29.7978516,16.6936849 C29.7514648,17.0111491 29.351454,18.042289 29.351454,18.042289 C27.8746196,22.2101491 23.2710485,26.7099998 19.2115724,28.4037936 C19.2115724,28.4037936 20.0380348,27.6500552 19.1790109,28.4317985 C18.319987,29.2135417 15.8644825,30.3853404 16.1595052,28.1432292 C16.4710286,25.7757161 16.0007324,25.713623 13.9179687,25.3359375 C11.8352051,24.958252 13.1216659,25.1937262 13.1216659,25.1937262 C8.77318618,24.4429413 4.97036676,20.2665723 4.78515625,16.4609375 C4.78515625,16.4609375 4.86206055,19.6413574 4.78515625,16.4609375 Z"></path>
        </g>
    </g>
</svg>