<svg viewBox="0 0 35 34" xmlns="http://www.w3.org/2000/svg"><path class="li-sharing-tags-icon-fill sharing-tags-icon-fill" d="M17.557 34.11c9.395 0 17.008-7.617 17.008-17.01 0-9.392-7.613-17.007-17.008-17.007C8.164.093.55 7.708.55 17.1c0 9.393 7.614 17.01 17.007 17.01"/><path class="li-sharing-tags-icon-in sharing-tags-icon-in" d="M26.06 24.214h-3.758v-5.49c0-1.437-.588-2.418-1.88-2.418-.99 0-1.54.662-1.796 1.3-.096.23-.08.548-.08.867v5.74H14.82s.05-9.724 0-10.608h3.725v1.665c.22-.728 1.41-1.767 3.31-1.767 2.355 0 4.206 1.526 4.206 4.812v5.9zM11.056 12.278h-.024c-1.2 0-1.977-.81-1.977-1.84 0-1.047.8-1.84 2.025-1.84 1.223 0 1.975.79 2 1.838 0 1.028-.777 1.842-2.023 1.842zm-1.573 1.327h3.315v10.61H9.482v-10.61z"/></svg>