<?xml version="1.0" encoding="UTF-8" standalone="no"?>
<svg width="35px" height="35px" viewBox="0 0 35 35" version="1.1" xmlns="http://www.w3.org/2000/svg" xmlns:xlink="http://www.w3.org/1999/xlink" xmlns:sketch="http://www.bohemiancoding.com/sketch/ns">
    <title>Linkedin Share</title>
    <desc>Linkedin share social icon</desc>
    <defs></defs>
    <g id="Page-1" stroke="none" stroke-width="1" fill="none" fill-rule="evenodd" sketch:type="MSPage">
        <g id="linkedin" sketch:type="MSLayerGroup">
            <path d="M17.557,34.109 C26.952,34.109 34.565,26.493 34.565,17.1 C34.565,7.708 26.952,0.093 17.557,0.093 C8.164,0.093 0.549,7.708 0.549,17.1 C0.549,26.493 8.164,34.109 17.557,34.109" id="Fill-193" fill="#247CB4" sketch:type="MSShapeGroup"></path>
            <path d="M26.061,24.214 L22.302,24.214 L22.302,18.724 C22.302,17.287 21.714,16.306 20.421,16.306 C19.432,16.306 18.882,16.968 18.626,17.606 C18.53,17.835 18.545,18.154 18.545,18.473 L18.545,24.214 L14.821,24.214 C14.821,24.214 14.869,14.489 14.821,13.605 L18.545,13.605 L18.545,15.27 C18.765,14.542 19.955,13.503 21.854,13.503 C24.21,13.503 26.061,15.029 26.061,18.315 L26.061,24.214 L26.061,24.214 Z M11.055,12.278 L11.031,12.278 C9.831,12.278 9.053,11.467 9.053,10.439 C9.053,9.391 9.854,8.597 11.078,8.597 C12.301,8.597 13.053,9.389 13.077,10.436 C13.077,11.464 12.301,12.278 11.055,12.278 L11.055,12.278 Z M9.482,13.605 L12.797,13.605 L12.797,24.214 L9.482,24.214 L9.482,13.605 Z" id="Fill-194" fill="#FFFFFF" sketch:type="MSShapeGroup"></path>
        </g>
    </g>
</svg>