<svg xmlns="http://www.w3.org/2000/svg" viewBox="0 0 78 78"><g class="od-sharing-tags-icon-fill sharing-tags-icon-fill"><path d="M38.02 1.22C17.46 1.22.79 17.8.79 38.24c0 20.45 16.67 37.03 37.23 37.03 20.55 0 37.22-16.58 37.22-37.03 0-20.44-16.67-37.02-37.22-37.02z"/></g><g class="od-sharing-tags-icon-in sharing-tags-icon-in"><path d="M50.86 60.81c-2.49 2.51-5.14.2-7.07-1.65-1.66-1.59-3.65-3.58-5.39-4.93-4.53 4.75-8.21 10.46-11.93 7.3-4.46-3.79 4.29-9.34 6.43-12.61-2.23-.5-5.97-1.7-7.73-3.03-1.77-1.34-2.1-4.42.04-5.94 2.56-1.83 4.28.18 7.3 1.15 11.45 3.67 15.88-6.6 19.27-.58 2.89 5.13-6.94 7.4-8.12 8.19 4.73 4.5 10.78 8.47 7.2 12.1z" class="s0"/><path d="M40.19 13.49c-6.23-1.05-13.59 2.72-14.75 10.3-2.55 16.7 22.81 20.62 25.21 3.86.89-6.19-3.11-12.91-10.46-14.16m-1.94 17.6c-6.93.09-7.44-9.82-.55-10.3 7.26-.51 7.34 10.22.55 10.3z"/></g></svg>