<?xml version="1.0" encoding="UTF-8" standalone="no"?>
<svg width="35px" height="35px" viewBox="0 0 35 35" version="1.1" xmlns="http://www.w3.org/2000/svg" xmlns:xlink="http://www.w3.org/1999/xlink" xmlns:sketch="http://www.bohemiancoding.com/sketch/ns">
    <title>Twitter Share</title>
    <desc>Twitter share social icon</desc>
    <defs></defs>
    <g stroke="none" stroke-width="1" fill="none" fill-rule="evenodd" sketch:type="MSPage">
        <g sketch:type="MSLayerGroup">
            <path d="M17.558,34.085 C26.951,34.085 34.565,26.471 34.565,17.077 C34.565,7.685 26.951,0.07 17.558,0.07 C8.164,0.07 0.549,7.685 0.549,17.077 C0.549,26.471 8.164,34.085 17.558,34.085" id="Fill-168" fill="#68C6E1" sketch:type="MSShapeGroup"></path>
            <path d="M26.09,12.622 C25.464,12.9 24.79,13.088 24.083,13.172 C24.805,12.74 25.359,12.055 25.62,11.239 C24.944,11.639 24.197,11.93 23.399,12.086 C22.763,11.407 21.854,10.983 20.848,10.983 C18.919,10.983 17.354,12.548 17.354,14.478 C17.354,14.752 17.384,15.018 17.444,15.274 C14.539,15.128 11.964,13.738 10.239,11.621 C9.938,12.139 9.766,12.74 9.766,13.38 C9.766,14.592 10.383,15.662 11.321,16.289 C10.749,16.272 10.209,16.113 9.737,15.853 L9.737,15.896 C9.737,17.59 10.942,19.003 12.542,19.323 C12.249,19.405 11.94,19.446 11.621,19.446 C11.396,19.446 11.176,19.425 10.963,19.384 C11.408,20.772 12.698,21.783 14.228,21.81 C13.032,22.748 11.524,23.307 9.887,23.307 C9.605,23.307 9.326,23.291 9.053,23.259 C10.6,24.249 12.438,24.828 14.411,24.828 C20.841,24.828 24.356,19.503 24.356,14.884 C24.356,14.732 24.353,14.58 24.347,14.431 C25.03,13.938 25.623,13.323 26.09,12.622" id="Fill-169" fill="#FFFFFF" sketch:type="MSShapeGroup"></path>
        </g>
    </g>
</svg>