<?xml version="1.0" encoding="utf-8"?>
<svg version="1.1" id="Layer_1" xmlns="http://www.w3.org/2000/svg" xmlns:xlink="http://www.w3.org/1999/xlink" x="0px" y="0px"
	 viewBox="0 0 77 77" enable-background="new 0 0 77 77" xml:space="preserve" width="100%" height="100%">
<path class="tw-sharing-tags-icon-fill sharing-tags-icon-fill" fill="none" stroke-miterlimit="10" d="M38.9,0.3C18.2,0.3,1.4,17.4,1.4,38.5s16.8,38.2,37.5,38.2
	s37.5-17.1,37.5-38.2S59.6,0.3,38.9,0.3z"/>
<g>
	<path class="tw-sharing-tags-icon-in sharing-tags-icon-in" d="M19.5,52.9c0.3,0,0.7,0.1,1,0.1c0.4,0,0.7,0,1,0c1,0,2-0.1,2.9-0.3c0.9-0.1,1.9-0.4,2.8-0.8
		c0.9-0.3,1.7-0.7,2.5-1.2c0.8-0.5,1.6-0.9,2.4-1.6c-0.9,0-1.9-0.1-2.7-0.5c-0.9-0.3-1.6-0.8-2.4-1.2c-0.7-0.5-1.3-1.2-1.9-1.9
		s-0.9-1.5-1.2-2.4c0.3,0,0.5,0.1,0.8,0.1c0.3,0,0.5,0,0.8,0c0.4,0,0.8,0,1.2-0.1c0.4,0,0.8-0.1,1.2-0.3c-0.9-0.3-1.9-0.5-2.8-1
		c-0.8-0.5-1.6-1.2-2.3-1.9c-0.7-0.8-1-1.6-1.5-2.5c-0.4-0.9-0.5-1.9-0.5-2.9l0,0l0,0c0.5,0.3,1.2,0.5,1.9,0.8
		c0.7,0.1,1.3,0.3,2,0.3c-1.2-0.8-2.1-1.7-2.8-3c-0.7-1.2-1-2.7-1-4.1c0-0.8,0.1-1.5,0.3-2.3c0.3-0.8,0.5-1.5,0.8-2
		c1,1.3,2.3,2.5,3.6,3.6c1.3,1,2.8,2,4.3,2.8c1.5,0.8,3,1.3,4.8,1.9c1.7,0.5,3.4,0.8,5.2,0.8c0-0.3-0.1-0.7-0.1-0.9c0-0.3,0-0.7,0-1
		c0-1.2,0.3-2.3,0.7-3.3c0.4-1,1-2,1.9-2.8s1.7-1.5,2.8-1.9c1-0.4,2.1-0.7,3.3-0.7s2.4,0.3,3.4,0.8s2,1.2,2.8,2
		c0.9-0.1,2-0.5,2.9-0.8c0.9-0.4,1.9-0.8,2.7-1.3c-0.3,0.9-0.8,1.9-1.5,2.7c-0.7,0.8-1.5,1.5-2.4,2c0.9-0.1,1.7-0.3,2.5-0.5
		c0.8-0.3,1.6-0.5,2.4-0.8c-0.5,0.8-1.2,1.6-2,2.4c-0.7,0.8-1.5,1.5-2.4,2.1c0,0.1,0,0.4,0,0.5c0,0.1,0,0.4,0,0.5
		c0,2.8-0.5,5.7-1.6,8.6c-1,2.9-2.7,5.6-4.8,8c-2.1,2.4-4.7,4.3-7.7,5.7c-3,1.5-6.5,2.3-10.5,2.3c-1.2,0-2.4-0.1-3.6-0.3
		c-1.2-0.1-2.4-0.4-3.4-0.8c-1-0.3-2.1-0.8-3.2-1.2C21.4,54.2,20.4,53.6,19.5,52.9z"/>
</g>
</svg>
