<svg xmlns="http://www.w3.org/2000/svg" viewBox="2 -1 74 79"><path class="tw-sharing-tags-icon-fill sharing-tags-icon-fill" fill="none" d="M38.9.3C18.2.3 1.4 17.4 1.4 38.5s16.8 38.2 37.5 38.2 37.5-17.1 37.5-38.2S59.6.3 38.9.3z"/><path class="tw-sharing-tags-icon-in sharing-tags-icon-in" d="M19.5 52.9c.3 0 .7.1 1 .1h1c1 0 2-.1 2.9-.3.9-.1 1.9-.4 2.8-.8.9-.3 1.7-.7 2.5-1.2s1.6-.9 2.4-1.6c-.9 0-1.9-.1-2.7-.5-.9-.3-1.6-.8-2.4-1.2-.7-.5-1.3-1.2-1.9-1.9s-.9-1.5-1.2-2.4c.3 0 .5.1.8.1h.8c.4 0 .8 0 1.2-.1.4 0 .8-.1 1.2-.3-.9-.3-1.9-.5-2.8-1-.8-.5-1.6-1.2-2.3-1.9-.7-.8-1-1.6-1.5-2.5-.4-.9-.5-1.9-.5-2.9.5.3 1.2.5 1.9.8.7.1 1.3.3 2 .3-1.2-.8-2.1-1.7-2.8-3-.7-1.2-1-2.7-1-4.1 0-.8.1-1.5.3-2.3.3-.8.5-1.5.8-2 1 1.3 2.3 2.5 3.6 3.6 1.3 1 2.8 2 4.3 2.8 1.5.8 3 1.3 4.8 1.9 1.7.5 3.4.8 5.2.8 0-.3-.1-.7-.1-.9v-1c0-1.2.3-2.3.7-3.3.4-1 1-2 1.9-2.8s1.7-1.5 2.8-1.9c1-.4 2.1-.7 3.3-.7s2.4.3 3.4.8 2 1.2 2.8 2c.9-.1 2-.5 2.9-.8.9-.4 1.9-.8 2.7-1.3-.3.9-.8 1.9-1.5 2.7-.7.8-1.5 1.5-2.4 2 .9-.1 1.7-.3 2.5-.5.8-.3 1.6-.5 2.4-.8-.5.8-1.2 1.6-2 2.4-.7.8-1.5 1.5-2.4 2.1v1c0 2.8-.5 5.7-1.6 8.6-1 2.9-2.7 5.6-4.8 8-2.1 2.4-4.7 4.3-7.7 5.7-3 1.5-6.5 2.3-10.5 2.3-1.2 0-2.4-.1-3.6-.3-1.2-.1-2.4-.4-3.4-.8-1-.3-2.1-.8-3.2-1.2-.7-.4-1.7-1-2.6-1.7z"/></svg>