<?xml version="1.0"?>
<svg width="35px" height="35px"  viewBox="0 0 116 117" version="1.1" xmlns="http://www.w3.org/2000/svg" xmlns:xlink="http://www.w3.org/1999/xlink">
    <desc iVinci="yes" version="4.6" gridStep="20" showGrid="no" snapToGrid="no" codePlatform="0"/>
    <g id="Layer1" name="Layer 1" opacity="1">
        <g id="Shape1">
            <desc shapeID="1" type="0" basicInfo-basicType="0" basicInfo-roundedRectRadius="12" basicInfo-polygonSides="6" basicInfo-starPoints="5" bounding="rect(-57.4257,-58.156,114.851,116.312)" text="" font-familyName="" font-pixelSize="20" font-bold="0" font-underline="0" font-alignment="1" strokeStyle="0" markerStart="0" markerEnd="0" shadowEnabled="0" shadowOffsetX="0" shadowOffsetY="2" shadowBlur="4" shadowOpacity="160" blurEnabled="0" blurRadius="4" transform="matrix(1,0,0,1,58.335,58.5361)" pers-center="0,0" pers-size="0,0" pers-start="0,0" pers-end="0,0" locked="0" mesh="" flag=""/>
            <path id="shapePath1" d="M58.3361,0.380089 C26.6188,0.380089 0.909306,26.4184 0.909306,58.5372 C0.909306,90.656 26.6188,116.692 58.3361,116.692 C90.0469,116.692 115.761,90.656 115.761,58.5372 C115.761,26.4184 90.0469,0.380089 58.3361,0.380089 M86.4687,64.4702 C91.2978,68.9371 94.6655,72.5769 96.5716,75.3852 C97.463,76.7894 97.7481,78.0355 97.429,79.1212 C97.112,80.2048 96.3802,80.7476 95.2378,80.7476 L82.6564,81.3226 C80.8757,81.4508 78.7164,80.3651 76.1742,78.0675 C73.632,75.77 71.9173,73.8528 71.0259,72.3204 C70.5175,71.4292 69.5963,70.9162 68.2625,70.788 C66.9286,70.664 66.0691,71.3009 65.6883,72.7051 L65.3075,77.6849 C65.1799,78.7044 64.7991,79.4717 64.1651,79.9825 C63.5269,80.4933 62.9887,80.7797 62.544,80.846 C62.0973,80.9079 61.3676,81.0041 60.3507,81.1324 C57.0469,81.2606 54.1557,81.1003 51.6773,80.6515 C49.1989,80.2048 46.9418,79.2815 44.9101,77.8773 C42.8763,76.471 41.2552,75.195 40.0469,74.0452 C38.8407,72.8953 37.0941,71.0445 34.8071,68.4904 C28.5803,59.5545 23.9404,51.8283 20.8897,45.3182 C19.7452,42.7642 19.1113,40.5927 18.9815,38.806 C19.4921,38.2952 20.4451,37.9767 21.8428,37.8485 C23.2426,37.7202 25.2743,37.6882 27.942,37.7523 C30.6119,37.8164 32.1989,37.8485 32.7074,37.8485 C33.9796,37.7202 34.9965,38.4234 35.7602,39.9558 C38.9364,47.1028 42.0509,52.6576 45.0994,56.6158 C47.1332,58.5308 48.4692,58.2123 49.1032,55.6583 C49.3585,55.6583 49.4861,52.5315 49.4861,46.2757 C49.6116,42.3154 48.0225,39.8276 44.7208,38.806 C45.4824,36.7627 48.1501,35.7411 52.7261,35.7411 C53.8707,35.7411 55.2684,35.8052 56.9213,35.9313 C58.5722,36.0596 59.4614,36.1237 59.587,36.1237 C63.4014,36.1237 65.3075,37.654 65.3075,40.721 C65.3075,41.1035 65.2437,42.0311 65.1182,43.4973 C64.9905,44.9656 64.8948,46.3697 64.831,47.7119 C64.7672,49.052 64.7352,50.4562 64.7352,51.9245 C64.7352,53.3928 64.9267,54.6367 65.3075,55.6604 C65.6883,56.6799 66.1968,57.319 66.8328,57.5754 C67.5306,57.0625 68.2008,56.5837 68.8347,56.1392 C69.4708,55.6904 70.1388,54.9573 70.8366,53.9357 C71.5365,52.9141 72.0747,52.1468 72.4577,51.6381 C72.8385,51.1252 73.4086,50.1698 74.1723,48.7635 C74.9361,47.3593 75.3807,46.4659 75.5062,46.0834 C75.6339,45.7008 76.0785,44.7112 76.8401,43.1147 C77.6038,41.5182 77.9846,40.721 77.9846,40.721 L78.2697,40.146 C78.7781,38.9962 79.193,38.3272 79.51,38.1349 C79.8269,37.9446 80.6226,37.8485 81.8926,37.8485 L93.7124,37.8485 C95.1101,37.8485 95.9355,37.8805 96.1908,37.9446 C96.444,38.0088 96.8269,38.2952 97.3332,38.806 C98.2246,39.9558 97.429,42.4436 94.9506,46.2757 C92.4743,50.1057 90.0916,53.2966 87.8025,55.8528 C84.6263,59.4263 84.1817,62.2988 86.4687,64.4702 Z" style="stroke:none;fill-rule:evenodd;fill:#6b82a7;fill-opacity:1;"/>
        </g>
    </g>
</svg>
