<svg xmlns="http://www.w3.org/2000/svg" viewBox="0 0 76 77"><g class="vk-sharing-tags-icon-fill sharing-tags-icon-fill"><path d="M38.24 1.16C17.78 1.16 1.2 17.78 1.2 38.29s16.58 37.13 37.04 37.13c20.45 0 37.03-16.62 37.03-37.13S58.69 1.16 38.24 1.16z"/></g><g class="vk-sharing-tags-icon-in sharing-tags-icon-in"><path d="M56.38 41.34c3.12 2.74 5.29 4.97 6.52 6.69.57.86.76 1.62.55 2.28-.2.67-.68 1-1.41 1l-8.12.35c-1.14.08-2.54-.58-4.18-1.99-1.64-1.41-2.74-2.58-3.32-3.52-.32-.55-.92-.86-1.78-.94-.86-.08-1.41.31-1.66 1.17l-.24 3.05c-.09.63-.33 1.1-.74 1.41-.41.32-.76.49-1.05.53-.28.04-.76.1-1.41.18-2.13.08-4-.02-5.6-.3-1.59-.27-3.05-.84-4.36-1.7-1.31-.86-2.36-1.64-3.13-2.34-.78-.71-1.91-1.84-3.39-3.41-4.01-5.47-7-10.21-8.97-14.2-.74-1.56-1.15-2.89-1.23-3.99.33-.31.94-.51 1.84-.59.91-.07 2.22-.09 3.94-.05 1.72.04 2.74.05 3.07.05.82-.07 1.48.36 1.97 1.3 2.05 4.38 4.06 7.78 6.02 10.21 1.31 1.17 2.17.97 2.59-.59.16 0 .24-1.92.24-5.75.08-2.43-.94-3.95-3.07-4.58.49-1.25 2.21-1.88 5.16-1.88.74 0 1.64.04 2.71.12 1.06.08 1.63.12 1.72.12 2.46 0 3.69.94 3.69 2.82 0 .23-.05.8-.13 1.7-.08.9-.14 1.76-.18 2.58-.04.82-.06 1.68-.06 2.58 0 .9.12 1.66.37 2.29.24.63.57 1.02.98 1.17.45-.31.88-.6 1.29-.88.41-.27.84-.72 1.29-1.35.45-.62.8-1.09 1.04-1.4.25-.32.62-.91 1.11-1.77.49-.86.78-1.4.86-1.64.08-.23.37-.84.86-1.82.49-.98.74-1.46.74-1.46l.18-.36c.33-.7.6-1.11.8-1.23.21-.12.72-.18 1.54-.18h7.62c.91 0 1.44.03 1.6.06.17.04.41.22.74.53.57.71.06 2.23-1.54 4.58-1.59 2.35-3.13 4.3-4.61 5.87-2.05 2.19-2.33 3.95-.86 5.28z"/></g></svg>